<svg width="139" height="29" viewBox="0 0 139 29" xmlns="http://www.w3.org/2000/svg"><title>ktbs logo</title><g fill="none" fill-rule="evenodd"><path d="M12.195 17.449c.102-.033.188-.068.276-.088 1.53-.349 3.126.63 3.542 2.17.034.123.057.25.091.373a3.037 3.037 0 0 0 3.29 2.232 3.057 3.057 0 0 0 2.709-2.807 3.073 3.073 0 0 0-2.196-3.162c-.637-.184-1.262-.148-1.89.057-1.41.462-2.895-.258-3.535-1.424a.47.47 0 0 1 .004-.515c.603-1.074 1.89-1.7 3.112-1.49.24.04.475.11.712.17a3.098 3.098 0 0 0 3.264-1.221c.704-1.008.56-2.711-.064-3.564-1.094-1.495-3.297-1.407-4.264-.648-.644.506-1.026 1.152-1.215 1.943-.287 1.2-1.071 1.935-2.245 2.255a2.467 2.467 0 0 1-1.602-.087c.011-.189.009-.374.034-.556.102-.747.452-1.356 1.006-1.867.836-.771 1.152-1.74.948-2.854-.271-1.487-1.635-2.566-3.221-2.464-1.737.113-3.087 1.792-2.794 3.509a3.174 3.174 0 0 0 1.052 1.882c.702.63.999 1.432.942 2.364-1.25.541-1.977 1.456-2.015 2.802-.041 1.444.712 2.413 2.021 2.998.043.937-.257 1.738-.963 2.37-.57.51-.941 1.131-1.035 1.89-.11.894.04 1.72.75 2.363.173.156.32.34.499.49.176.146.362.298.57.389a3.038 3.038 0 0 0 3.696-1.042 3.055 3.055 0 0 0-.279-3.864c-.128-.135-.271-.256-.398-.392-.576-.62-.835-1.355-.802-2.212z" fill="#FFF"/><path d="M28.83 14.667c.046 7.488-6.032 14.276-14.292 14.274C6.35 28.94.179 22.333.188 14.595.198 6.65 6.638.225 14.548.26c8.069.035 14.35 6.628 14.282 14.407z" fill="#FFF"/><path d="M11.063 16.453v.36c0 .816-.005 1.633.003 2.45.003.218-.046.406-.157.593-.328.551-.658 1.102-.959 1.668a1.374 1.374 0 0 0 .557 1.843 1.376 1.376 0 0 0 1.841-.473c.293-.478.29-.974.015-1.461a94.519 94.519 0 0 0-.927-1.605.987.987 0 0 1-.148-.528c.007-.851.003-1.703.004-2.554 0-.102.014-.204.019-.281.288-.11.566-.176.8-.316.244-.146.446-.363.68-.56.035.015.089.037.138.064 1.227.67 2.452 1.345 3.68 2.012a.763.763 0 0 1 .32.352c.303.592.597 1.188.92 1.769a1.365 1.365 0 0 0 1.654.63 1.395 1.395 0 0 0 .92-1.516c-.088-.654-.636-1.148-1.32-1.183a75.422 75.422 0 0 0-1.78-.078 1.192 1.192 0 0 1-.563-.155c-1.213-.67-2.43-1.336-3.644-2.005-.079-.043-.152-.097-.24-.154.21-.521.196-1.034.005-1.552.068-.046.122-.088.182-.121 1.256-.691 2.51-1.384 3.77-2.066.126-.069.285-.096.43-.105.617-.037 1.235-.051 1.851-.09.71-.043 1.267-.587 1.316-1.265a1.378 1.378 0 0 0-1.072-1.475c-.614-.148-1.225.136-1.55.738a53.184 53.184 0 0 0-.851 1.647.957.957 0 0 1-.422.441c-1.177.64-2.349 1.29-3.523 1.934-.08.044-.164.078-.272.129-.345-.506-.836-.77-1.449-.863v-.368c0-.594.037-1.192-.01-1.783-.054-.696.113-1.3.508-1.87.245-.353.455-.735.643-1.122.35-.725-.01-1.589-.759-1.876a1.375 1.375 0 0 0-1.816.89c-.118.388-.074.76.13 1.113.315.545.625 1.093.945 1.635a.922.922 0 0 1 .134.495c-.006.863-.003 1.726-.004 2.59 0 .091-.01.183-.013.247-.31.13-.61.227-.881.375-.292.159-.499.418-.647.717a1.86 1.86 0 0 0-.198.913c.034.895.56 1.455 1.74 1.82m1.132.996c-.033.857.226 1.591.802 2.212.127.136.27.257.398.392a3.055 3.055 0 0 1 .279 3.864 3.038 3.038 0 0 1-3.696 1.042c-.208-.09-.394-.243-.57-.39-.179-.148-.326-.333-.499-.49-.71-.642-.86-1.468-.75-2.362.094-.759.465-1.38 1.035-1.89.706-.632 1.006-1.433.963-2.37-1.31-.585-2.062-1.554-2.02-2.998.037-1.346.764-2.26 2.014-2.802.057-.932-.24-1.733-.943-2.364a3.173 3.173 0 0 1-1.051-1.882c-.293-1.717 1.057-3.397 2.793-3.509 1.587-.102 2.95.977 3.222 2.464.204 1.115-.112 2.083-.948 2.854-.554.511-.904 1.12-1.006 1.867-.025.182-.023.367-.033.556.545.216 1.077.23 1.601.087 1.174-.32 1.957-1.054 2.245-2.255.189-.79.571-1.437 1.215-1.943.967-.759 3.17-.847 4.265.648.624.853.767 2.556.063 3.564a3.098 3.098 0 0 1-3.264 1.22c-.237-.058-.472-.128-.712-.17-1.222-.209-2.51.417-3.112 1.49-.103.184-.106.33-.004.516.64 1.166 2.125 1.886 3.535 1.424.628-.205 1.253-.24 1.89-.057a3.073 3.073 0 0 1 2.196 3.162 3.058 3.058 0 0 1-2.709 2.807 3.037 3.037 0 0 1-3.29-2.232c-.034-.124-.057-.25-.09-.374-.417-1.54-2.013-2.518-3.542-2.169-.09.02-.174.055-.277.088" fill="#01ACEC"/><path d="M11.063 16.453c-1.18-.365-1.706-.925-1.74-1.82a1.865 1.865 0 0 1 .198-.913c.148-.3.355-.558.647-.717.272-.148.57-.246.881-.375.004-.064.013-.156.013-.248.001-.863-.002-1.726.004-2.589a.922.922 0 0 0-.134-.495c-.32-.542-.63-1.09-.945-1.635a1.353 1.353 0 0 1-.13-1.112 1.375 1.375 0 0 1 1.816-.891c.75.287 1.11 1.15.759 1.876a8.346 8.346 0 0 1-.643 1.122 2.767 2.767 0 0 0-.507 1.87c.046.59.01 1.189.01 1.783v.368c.612.093 1.103.357 1.448.863.108-.051.193-.085.272-.129 1.174-.645 2.346-1.294 3.523-1.934a.957.957 0 0 0 .422-.441c.274-.554.557-1.103.85-1.647.326-.602.937-.886 1.55-.738.69.166 1.125.764 1.073 1.475-.049.678-.606 1.222-1.316 1.266-.616.038-1.234.052-1.85.089a1.058 1.058 0 0 0-.43.105c-1.26.682-2.515 1.375-3.77 2.066-.06.033-.115.075-.183.121.19.518.205 1.03-.005 1.552.088.057.161.11.24.154 1.215.669 2.431 1.334 3.644 2.005.178.1.358.15.563.155.594.017 1.187.047 1.78.078.684.035 1.232.53 1.32 1.183a1.395 1.395 0 0 1-.92 1.516 1.365 1.365 0 0 1-1.654-.63c-.323-.58-.617-1.177-.92-1.769a.763.763 0 0 0-.32-.352c-1.228-.667-2.453-1.341-3.68-2.012-.05-.027-.103-.049-.138-.065-.234.198-.436.415-.68.561-.234.14-.512.206-.8.316-.005.077-.018.179-.019.28-.001.852.003 1.704-.004 2.555a.987.987 0 0 0 .148.528c.313.532.623 1.067.927 1.605.274.487.278.983-.015 1.461-.383.627-1.2.83-1.841.473a1.374 1.374 0 0 1-.557-1.843c.301-.566.63-1.117.959-1.668.111-.187.16-.375.157-.594-.008-.816-.003-1.633-.003-2.449v-.36zm28.205-.816c-.188.205-.363.392-.535.581-.278.305-.548.617-.834.914a.667.667 0 0 0-.19.507c.006 1.445.003 2.889.003 4.333v.44h-2.761V6.736h2.748c.005.356.01.717.013 1.079.002.355 0 .71 0 1.065v4.359l.069.035c.083-.089.17-.175.25-.266 1.772-2.004 3.545-4.005 5.31-6.015.179-.204.357-.291.628-.286.972.015 1.944.006 2.916.006h.33c.019.036.027.046.029.057.002.01 0 .024-.007.033a.51.51 0 0 1-.06.086l-6.05 6.678c-.007.008-.009.022-.034.085l6.856 8.73c-.104.022-.166.047-.227.048-.995.002-1.991-.005-2.986.007-.211.003-.315-.108-.426-.253-1.39-1.816-2.782-3.63-4.174-5.445l-.646-.842c-.063-.082-.134-.158-.222-.26m37.567-2.726v3.345c0 .863-.006 1.727.003 2.59.006.674.274 1.043.914 1.21a4.6 4.6 0 0 0 1.039.14c1.388.032 2.102-.551 2.389-1.928.204-.981.204-1.974.117-2.967a3.732 3.732 0 0 0-.386-1.392c-.293-.57-.745-.947-1.36-1.084-.895-.199-1.787-.1-2.716.086zm-2.778-6.71h2.777v4.451c.499-.052.95-.106 1.402-.144a6.68 6.68 0 0 1 2.298.198c1.677.45 2.784 1.53 3.275 3.201.533 1.817.513 3.652-.096 5.449-.628 1.85-1.95 2.904-3.856 3.19-1.165.175-2.316.084-3.418-.36-1.267-.512-2.07-1.435-2.32-2.807a4.766 4.766 0 0 1-.06-.849c-.003-3.989-.002-7.978-.002-11.967v-.362zm-4.713 10.674c-.07-.02-.135-.049-.202-.059-.72-.105-1.446-.157-2.17-.076a5.138 5.138 0 0 0-1.118.273c-.368.13-.632.404-.751.791-.289.94.217 1.911 1.15 2.194a3.491 3.491 0 0 0 1.907.023c.685-.175 1.115-.62 1.174-1.333.05-.597.01-1.201.01-1.813m-.027-1.829c.03-1.256-.673-2.056-1.893-2.168a8.918 8.918 0 0 0-3.535.394l-.364.114c-.072-.274-.088-1.807-.024-2.242a7.149 7.149 0 0 1 1.702-.493c1.163-.201 2.326-.245 3.487.018 1.942.439 3.21 1.764 3.405 3.98.092 1.045.054 2.103.063 3.155.003.45.004.901-.044 1.346-.136 1.27-.783 2.205-1.885 2.819-.634.354-1.324.528-2.041.601-1.045.106-2.082.069-3.093-.249-1.203-.378-2.118-1.096-2.574-2.32a3.772 3.772 0 0 1-.156-2.199c.228-.989.798-1.722 1.676-2.211.699-.389 1.46-.563 2.246-.644a11.093 11.093 0 0 1 2.556.055c.15.019.3.028.474.044m38.219 1.825c-.073-.02-.128-.043-.184-.052-.72-.108-1.445-.16-2.168-.08a5.331 5.331 0 0 0-1.12.268 1.18 1.18 0 0 0-.734.717c-.33.858.118 1.911.974 2.222.75.273 1.517.268 2.27.002.573-.202.91-.636.952-1.24.042-.6.01-1.203.01-1.837m-5.86-3.476V11.19c.028-.026.05-.06.079-.07 1.756-.656 3.552-.86 5.378-.381 1.818.476 2.822 1.725 3.125 3.57.061.371.08.753.084 1.13.012 1.066.008 2.132.004 3.198-.006 1.69-.88 2.97-2.444 3.577-1.076.417-2.193.464-3.323.365a5.766 5.766 0 0 1-1.703-.405c-2.106-.867-2.65-2.84-2.302-4.396.232-1.037.859-1.77 1.784-2.25.666-.345 1.384-.503 2.123-.58a11.135 11.135 0 0 1 2.558.055c.15.019.3.028.447.042.143-.731-.27-1.54-.957-1.902-.482-.254-1.005-.308-1.535-.303-1.06.01-2.102.137-3.107.5-.053.02-.109.03-.212.056m-10.425 5.78c.154.086.256.14.355.198a5.85 5.85 0 0 0 3.788.752c.103-.014.207-.037.308-.065.371-.1.67-.274.738-.706.072-.464-.033-.86-.453-1.1a5.53 5.53 0 0 0-.894-.403c-.507-.18-1.031-.311-1.535-.5a7.856 7.856 0 0 1-1.21-.555c-.884-.518-1.353-1.308-1.42-2.346-.11-1.694.693-3.022 2.274-3.6 1.748-.639 3.452-.443 5.087.43.03.017.054.046.09.077v2.096c-.126-.05-.23-.091-.334-.13-1.113-.408-2.252-.527-3.418-.307a1.63 1.63 0 0 0-.492.18c-.545.31-.59.975-.084 1.341.197.142.427.248.657.329.464.16.943.278 1.407.442.43.15.863.306 1.267.515 1.175.609 1.764 1.614 1.854 2.932.039.585 0 1.158-.246 1.702-.348.766-.926 1.295-1.665 1.659a4.848 4.848 0 0 1-1.754.475c-1.418.119-2.774-.123-4.05-.78-.092-.047-.179-.106-.27-.16v-2.476zM55.557 13.1h-1.923v-2.417h1.916c.014-.607.005-1.182.007-1.756V7.212h2.782c.01 1.142-.002 2.282.007 3.457h2.727c.043.818.015 1.6.02 2.419h-2.722c-.011.133-.027.235-.027.336-.002 1.81-.003 3.622.001 5.432 0 .188.023.378.056.564.068.39.302.631.686.714a3.408 3.408 0 0 0 1.633-.055c.11-.03.221-.058.356-.093v2.277c-.339.182-.716.255-1.096.308-.68.094-1.357.075-2.017-.13-1.273-.395-2.016-1.289-2.284-2.584a6.698 6.698 0 0 1-.116-1.305c-.013-1.668-.006-3.337-.006-5.005V13.1zm30.622-2.4h2.748v11.73c-.92.006-1.825.003-2.748 0V10.7zM52.046 22.41h-2.675c-.07-.272-.093-11.209-.025-11.704h2.685c.076.242.096 11.267.015 11.704m.065-15.896v2.482c-.258.077-2.23.102-2.79.04-.067-.25-.088-1.945-.031-2.494.245-.069 2.23-.092 2.821-.028m34.016 2.524h2.823V6.507h-2.823zm25.376 13.244v-1.8h1.877v1.8h-1.877zm2.67-3.488c0-1.205.285-2.128.857-2.768.572-.64 1.39-.96 2.457-.96.686 0 1.36.134 2.024.402v1.448a4.486 4.486 0 0 0-1.743-.346c-.645 0-1.124.152-1.438.455-.313.304-.47.894-.47 1.77 0 .866.157 1.453.47 1.761.314.309.793.463 1.438.463.58 0 1.162-.12 1.743-.36v1.447a5.354 5.354 0 0 1-2.024.403c-1.066 0-1.885-.32-2.457-.96-.572-.64-.858-1.559-.858-2.755zm6.339-.007c0-1.198.287-2.118.862-2.76.575-.64 1.4-.961 2.474-.961 1.074 0 1.9.32 2.474.962.575.641.863 1.561.863 2.76 0 1.197-.288 2.117-.863 2.759-.575.641-1.4.962-2.474.962-1.074 0-1.899-.32-2.474-.962-.575-.642-.862-1.562-.862-2.76zm1.668.004c0 .928.137 1.554.41 1.879.275.324.695.486 1.262.486.566 0 .986-.162 1.257-.486.272-.325.408-.95.408-1.879 0-.928-.136-1.556-.408-1.882-.271-.327-.69-.49-1.257-.49s-.987.163-1.261.49c-.274.326-.411.954-.411 1.882zm6.006 3.718v-6.626c1.054-.545 2.09-.817 3.106-.817h.028c.77 0 1.414.179 1.93.537.881-.358 1.736-.537 2.562-.537.961 0 1.71.269 2.246.806.536.538.805 1.283.805 2.234v4.403h-1.707v-4.525c0-.468-.115-.822-.344-1.061-.23-.24-.659-.359-1.285-.359-.493 0-.978.058-1.456.172.2.235.3.691.3 1.37v4.403h-1.693v-4.568c0-.45-.113-.786-.338-1.01-.225-.226-.646-.338-1.264-.338-.408 0-.803.038-1.184.115v5.801h-1.706z" fill="#FFF"/></g></svg>